<svg id="visual" viewBox="0 0 900 600" width="900" height="600" xmlns="http://www.w3.org/2000/svg" xmlns:xlink="http://www.w3.org/1999/xlink" version="1.1"><path d="M0 361L21.5 363C43 365 86 369 128.8 368.8C171.7 368.7 214.3 364.3 257.2 360.3C300 356.3 343 352.7 385.8 357.5C428.7 362.3 471.3 375.7 514.2 377C557 378.3 600 367.7 642.8 358.2C685.7 348.7 728.3 340.3 771.2 346C814 351.7 857 371.3 878.5 381.2L900 391L900 601L878.5 601C857 601 814 601 771.2 601C728.3 601 685.7 601 642.8 601C600 601 557 601 514.2 601C471.3 601 428.7 601 385.8 601C343 601 300 601 257.2 601C214.3 601 171.7 601 128.8 601C86 601 43 601 21.5 601L0 601Z" fill="#ffa500"></path><path d="M0 405L21.5 406.3C43 407.7 86 410.3 128.8 406.7C171.7 403 214.3 393 257.2 386.8C300 380.7 343 378.3 385.8 378.3C428.7 378.3 471.3 380.7 514.2 380.5C557 380.3 600 377.7 642.8 381.2C685.7 384.7 728.3 394.3 771.2 395.3C814 396.3 857 388.7 878.5 384.8L900 381L900 601L878.5 601C857 601 814 601 771.2 601C728.3 601 685.7 601 642.8 601C600 601 557 601 514.2 601C471.3 601 428.7 601 385.8 601C343 601 300 601 257.2 601C214.3 601 171.7 601 128.8 601C86 601 43 601 21.5 601L0 601Z" fill="#ff9300"></path><path d="M0 456L21.5 450.7C43 445.3 86 434.7 128.8 431.8C171.7 429 214.3 434 257.2 434.7C300 435.3 343 431.7 385.8 427.8C428.7 424 471.3 420 514.2 417.5C557 415 600 414 642.8 416.7C685.7 419.3 728.3 425.7 771.2 425.7C814 425.7 857 419.3 878.5 416.2L900 413L900 601L878.5 601C857 601 814 601 771.2 601C728.3 601 685.7 601 642.8 601C600 601 557 601 514.2 601C471.3 601 428.7 601 385.8 601C343 601 300 601 257.2 601C214.3 601 171.7 601 128.8 601C86 601 43 601 21.5 601L0 601Z" fill="#fe8000"></path><path d="M0 459L21.5 461.2C43 463.3 86 467.7 128.8 474.5C171.7 481.3 214.3 490.7 257.2 492C300 493.3 343 486.7 385.8 487.2C428.7 487.7 471.3 495.3 514.2 493.8C557 492.3 600 481.7 642.8 480C685.7 478.3 728.3 485.7 771.2 485.8C814 486 857 479 878.5 475.5L900 472L900 601L878.5 601C857 601 814 601 771.2 601C728.3 601 685.7 601 642.8 601C600 601 557 601 514.2 601C471.3 601 428.7 601 385.8 601C343 601 300 601 257.2 601C214.3 601 171.7 601 128.8 601C86 601 43 601 21.5 601L0 601Z" fill="#fc6b00"></path><path d="M0 498L21.5 497.8C43 497.7 86 497.3 128.8 504C171.7 510.7 214.3 524.3 257.2 530.7C300 537 343 536 385.8 533C428.7 530 471.3 525 514.2 521.5C557 518 600 516 642.8 512.2C685.7 508.3 728.3 502.7 771.2 500.7C814 498.7 857 500.3 878.5 501.2L900 502L900 601L878.5 601C857 601 814 601 771.2 601C728.3 601 685.7 601 642.8 601C600 601 557 601 514.2 601C471.3 601 428.7 601 385.8 601C343 601 300 601 257.2 601C214.3 601 171.7 601 128.8 601C86 601 43 601 21.5 601L0 601Z" fill="#fa5400"></path><path d="M0 574L21.5 569.3C43 564.7 86 555.3 128.8 553.8C171.7 552.3 214.3 558.7 257.2 558.3C300 558 343 551 385.8 552.8C428.7 554.7 471.3 565.3 514.2 566C557 566.7 600 557.3 642.8 551.7C685.7 546 728.3 544 771.2 544.3C814 544.7 857 547.3 878.5 548.7L900 550L900 601L878.5 601C857 601 814 601 771.2 601C728.3 601 685.7 601 642.8 601C600 601 557 601 514.2 601C471.3 601 428.7 601 385.8 601C343 601 300 601 257.2 601C214.3 601 171.7 601 128.8 601C86 601 43 601 21.5 601L0 601Z" fill="#f83600"></path></svg>